<svg width="28" height="28" viewBox="0 0 28 28" fill="none" xmlns="http://www.w3.org/2000/svg">
<path d="M5.84979 7.65013C5.33597 7.69177 4.67606 7.69177 3.8283 7.69177C1.71339 7.69177 0 5.97021 0 3.84613C0 1.72206 1.71339 0 3.8283 0C5.94222 0 7.65661 1.72206 7.65661 3.84613C7.65661 4.72947 7.65661 5.40957 7.6099 5.93402C7.55523 6.55365 7.43597 6.95467 7.17459 7.21441C6.90824 7.48011 6.4938 7.59759 5.84979 7.65013Z" fill="white"/>
<path d="M23.5145 7.69177C25.6284 7.69177 27.3428 5.97021 27.3428 3.84613C27.3428 1.72206 25.6284 0 23.5145 0C21.3995 0 19.6861 1.72206 19.6861 3.84613C19.6861 5.77341 19.6852 6.73507 20.1672 7.21441C20.6472 7.69177 21.6043 7.69177 23.5145 7.69177Z" fill="white"/>
<path d="M27.3437 13.7358C27.3437 15.8599 25.6294 17.5815 23.5154 17.5815H21.8806C20.8927 17.5815 19.2817 18.4732 18.3186 19.7963C17.6895 20.6598 17.3009 21.4157 17.3009 22.3342V23.857C17.3009 25.8195 15.7058 27.4102 13.739 27.4102C11.7721 27.4102 10.177 25.8195 10.177 23.857C10.177 21.8946 11.7721 20.3039 13.739 20.3039H15.2655C16.2365 20.3039 17.3864 19.3591 18.3186 18.2735C18.4389 18.1337 18.5561 17.9959 18.6684 17.8596C18.8314 17.6603 18.9845 17.463 19.1197 17.2657C19.2051 17.1408 19.2836 17.0159 19.3532 16.8905C19.4079 16.7928 19.4566 16.6947 19.4993 16.5955C19.6186 16.3174 19.6871 16.0329 19.6871 15.7355V13.7358C19.6871 11.6118 21.4005 9.8897 23.5154 9.8897C25.6294 9.8897 27.3437 11.6118 27.3437 13.7358Z" fill="white"/>
<path d="M27.3437 23.6255C27.3437 25.7496 25.6294 27.4712 23.5154 27.4712C21.4005 27.4712 19.6871 25.7496 19.6871 23.6255C19.6871 21.6978 19.6871 20.7361 20.1692 20.2568C20.6492 19.7794 21.6063 19.7794 23.5154 19.7794C25.6294 19.7794 27.3437 21.5015 27.3437 23.6255Z" fill="white"/>
<path d="M13.3384 7.69177C15.4524 7.69177 17.1667 5.97021 17.1667 3.84613C17.1667 1.72206 15.4524 0 13.3384 0C11.2235 0 9.51013 1.72206 9.51013 3.84613V5.84579C9.51013 6.74746 8.87606 7.52918 8.14161 8.38377C7.20938 9.46935 6.05949 10.4142 5.0885 10.4142H3.56195C1.59513 10.4142 0 12.0049 0 13.9673C0 15.9298 1.59513 17.5205 3.56195 17.5205C5.52878 17.5205 7.1239 15.9298 7.1239 13.9673V12.4445C7.1239 11.526 7.5125 10.7701 8.14161 9.90656C9.10464 8.58354 10.7157 7.69177 11.7036 7.69177H13.3384Z" fill="white"/>
<path d="M17.1667 13.7344C17.1667 15.8584 15.4524 17.58 13.3384 17.58H11.7036C10.7157 17.58 9.10464 18.4718 8.14161 19.7948C7.5125 20.6583 7.1239 21.4142 7.1239 22.3328V23.8555C7.1239 25.818 5.52878 27.4087 3.56195 27.4087C1.59513 27.4087 0 25.818 0 23.8555C0 21.8931 1.59513 20.3024 3.56195 20.3024H5.0885C6.05949 20.3024 7.20938 19.3576 8.14161 18.272C8.87606 17.4174 9.51013 16.6357 9.51013 15.734V13.7344C9.51013 11.6103 11.2235 9.88822 13.3384 9.88822C15.4524 9.88822 17.1667 11.6103 17.1667 13.7344Z" fill="white"/>
</svg>
